<svg width="15" height="16" viewBox="0 0 15 16" fill="none" xmlns="http://www.w3.org/2000/svg">
<path d="M14 6.5V15.5C14 15.8 13.8 16 13.5 16H1.5C1.2 16 1 15.8 1 15.5V6.5C1 6.2 1.2 6 1.5 6C1.8 6 2 6.2 2 6.5V15H13V6.5C13 6.2 13.2 6 13.5 6C13.8 6 14 6.2 14 6.5ZM15 3.5C15 3.8 14.8 4 14.5 4H0.5C0.2 4 0 3.8 0 3.5C0 3.2 0.2 3 0.5 3H5V0.5C5 0.2 5.2 0 5.5 0H9.5C9.8 0 10 0.2 10 0.5V3H14.5C14.8 3 15 3.2 15 3.5ZM6 3H9V1H6V3ZM8 12.5V7.5C8 7.2 7.8 7 7.5 7C7.2 7 7 7.2 7 7.5V12.5C7 12.8 7.2 13 7.5 13C7.8 13 8 12.8 8 12.5ZM11 12.5V7.5C11 7.2 10.8 7 10.5 7C10.2 7 10 7.2 10 7.5V12.5C10 12.8 10.2 13 10.5 13C10.8 13 11 12.8 11 12.5ZM5 12.5V7.5C5 7.2 4.8 7 4.5 7C4.2 7 4 7.2 4 7.5V12.5C4 12.8 4.2 13 4.5 13C4.8 13 5 12.8 5 12.5Z" fill="#474747"/>
</svg>
